<svg xmlns="http://www.w3.org/2000/svg" width="1200" height="1500" viewBox="0 0 1200 1500" role="img" aria-labelledby="title desc">
<title id="title">Build 097 — Nervous-System-Aware Personalization Platform original fallback graphic</title>
<desc id="desc">Original RN diagram for Build 097, Nervous-System-Aware Personalization Platform: A personalization engine reveals its consent, evidence, and user-control layers. This is an original concept diagram, not external evidence.</desc>
<rect width="1200" height="1500" fill="#ECEFF2"/><rect x="44" y="44" width="1112" height="1412" rx="36" fill="none" stroke="#172029" stroke-width="4"/>
<text x="96" y="128" fill="#476B82" font-family="Arial, Helvetica, sans-serif" font-size="24" font-weight="700" letter-spacing="3">100 BUILDS • 097</text>
<text x="96" y="255" fill="#172029" font-family="Arial, Helvetica, sans-serif" font-size="66" font-weight="800"><tspan x="96" dy="0">Personalization Without</tspan><tspan x="96" dy="76">Surveillance</tspan></text>
<g fill="#ECEFF2" stroke="#476B82" stroke-width="8" font-family="Arial, Helvetica, sans-serif" font-size="24" font-weight="700" text-anchor="middle"><g aria-label="Original feedback-loop diagram"><circle cx="600" cy="765" r="190"/><path d="M420 720C500 540 720 545 790 690"/><path d="M790 690l-50-10 25-42"/><path d="M780 810C690 990 475 980 410 830"/><path d="M410 830l50 10-25 42"/><text x="600" y="775">Personalization Runtime</text></g></g>
<text x="96" y="1120" fill="#172029" font-family="Arial, Helvetica, sans-serif" font-size="28" font-weight="600"><tspan x="96" dy="0">A personalization engine reveals its consent,</tspan><tspan x="96" dy="38">evidence, and user-control layers.</tspan></text>
<line x1="96" y1="1270" x2="1104" y2="1270" stroke="#172029" stroke-width="3"/><text x="96" y="1330" fill="#172029" font-family="Arial, Helvetica, sans-serif" font-size="22" font-weight="700">ORIGINAL RN FALLBACK • HOLD • NOT EVIDENCE</text><text x="96" y="1380" fill="#172029" font-family="Arial, Helvetica, sans-serif" font-size="18">Concept illustration only. No affiliation, endorsement, or external validation implied.</text>
</svg>
